<?xml version="1.0" standalone="no"?>
<!DOCTYPE svg PUBLIC "-//W3C//DTD SVG 20010904//EN"
 "http://www.w3.org/TR/2001/REC-SVG-20010904/DTD/svg10.dtd">
<svg version="1.0" xmlns="http://www.w3.org/2000/svg"
 width="700.000000pt" height="700.000000pt" viewBox="0 0 700.000000 700.000000"
 preserveAspectRatio="xMidYMid meet">
<metadata>
Created by potrace 1.14, written by Peter Selinger 2001-2017
</metadata>
<g transform="translate(0.000000,700.000000) scale(0.100000,-0.100000)"
fill="#000000" stroke="none">
<path d="M3464 6346 c-119 -55 -176 -141 -182 -273 -3 -70 -1 -89 20 -135 30
-63 91 -127 147 -153 l41 -18 0 -241 0 -242 -172 -12 c-694 -48 -1333 -287
-1773 -664 -284 -243 -491 -548 -617 -907 -17 -47 -48 -153 -69 -236 -21 -82
-39 -139 -40 -125 -1 19 -2 21 -6 6 -4 -16 -12 -18 -61 -13 -244 20 -473 -123
-569 -356 -31 -75 -42 -229 -23 -320 37 -180 188 -348 368 -408 72 -25 214
-32 302 -16 l46 9 24 -51 c13 -28 25 -49 27 -47 3 2 -5 22 -16 45 -12 22 -21
46 -21 53 0 7 23 -29 50 -80 183 -346 476 -570 941 -721 78 -26 337 -90 361
-91 4 0 0 -17 -9 -38 -11 -24 -16 -65 -16 -117 0 -66 5 -89 26 -130 31 -61 68
-97 127 -124 44 -20 59 -21 1215 -21 l1170 0 50 24 c55 25 109 80 133 135 14
33 20 151 10 220 -3 22 2 24 116 47 253 52 498 152 668 274 142 102 301 281
373 419 9 19 25 42 34 53 10 10 28 41 41 69 20 42 27 49 45 44 11 -4 56 -11
100 -17 66 -9 94 -8 160 5 154 32 278 113 358 235 63 96 88 170 94 277 7 114
-8 184 -59 287 -76 152 -216 258 -388 294 -41 9 -98 14 -127 12 -49 -4 -52 -3
-56 21 -75 392 -247 773 -475 1056 -143 176 -373 374 -577 498 -383 232 -839
362 -1392 399 l-183 12 0 241 1 240 37 17 c64 30 110 76 144 145 64 130 36
269 -73 367 -60 54 -121 76 -208 76 -48 0 -80 -7 -117 -24z m136 -56 c11 -7
-2 -10 -43 -10 -66 0 -119 -19 -161 -58 -64 -61 -84 -167 -46 -251 25 -54 25
-59 1 -37 -22 20 -51 96 -51 133 0 86 59 180 134 214 44 20 141 25 166 9z
m-435 -1156 c-11 -2 -81 -10 -155 -19 -752 -90 -1401 -496 -1798 -1126 -117
-186 -230 -437 -287 -639 -15 -52 -32 -99 -37 -105 -7 -7 -8 -3 -4 10 3 11 10
41 16 68 5 26 24 90 40 142 226 705 765 1267 1464 1530 127 47 375 110 491
124 50 6 101 13 115 15 14 2 59 3 100 3 41 0 66 -1 55 -3z m1245 -1481 c169
-8 172 -8 85 -14 -127 -10 -1616 -10 -1755 -1 l-115 7 135 5 c215 9 1457 11
1650 3z m-4029 -528 c-124 -131 -150 -309 -69 -474 18 -36 34 -70 37 -76 2 -5
-6 -1 -18 9 -12 11 -36 49 -53 84 -27 54 -33 79 -36 152 -6 133 37 241 129
324 61 56 68 42 10 -19z m4322 41 c51 -22 98 -78 113 -135 43 -167 -128 -305
-283 -230 -147 71 -147 285 -1 358 50 24 123 28 171 7z m1803 -20 c66 -17 144
-60 180 -97 36 -38 24 -48 -18 -16 -44 33 -143 82 -198 98 -25 7 -49 16 -54
21 -15 12 33 9 90 -6z m-4097 -34 c118 -71 123 -250 10 -332 -101 -73 -238
-38 -294 74 -30 59 -32 116 -6 171 53 114 181 153 290 87z m690 -174 c35 -162
140 -282 284 -323 157 -45 340 57 426 238 37 77 39 79 45 51 14 -61 -30 -182
-91 -250 -122 -138 -314 -181 -470 -104 -127 63 -223 198 -231 326 -7 113 18
154 37 62z m-2180 -422 c17 -66 29 -122 27 -124 -10 -9 -39 66 -62 157 -27
103 -42 288 -29 337 6 22 12 -6 21 -111 8 -82 26 -190 43 -259z m722 -869
c338 -144 666 -214 1054 -224 166 -5 211 -9 185 -16 -49 -13 -424 -1 -543 18
-222 35 -429 90 -619 166 -113 44 -344 161 -368 186 -8 8 30 -8 86 -35 55 -28
147 -70 205 -95z"/>
</g>
</svg>
