<svg width="300" height="321" viewBox="0 0 300 321" fill="none" xmlns="http://www.w3.org/2000/svg">
<g id="bot">
<g id="hand">
<path id="Vector" d="M85.436 190.85L43.316 186.49L25.476 146L11.616 149.61C11.616 149.61 21.856 192.4 33.316 199.03C44.776 205.66 83.926 206.85 83.926 206.85L85.436 190.85Z" fill="#6494FF"/>
<path id="Vector_2" d="M39.5403 202.545C47.064 200.738 51.6989 193.175 49.8926 185.651C48.0863 178.127 40.5228 173.492 32.9991 175.299C25.4754 177.105 20.8405 184.669 22.6468 192.192C24.4531 199.716 32.0165 204.351 39.5403 202.545Z" fill="#263238"/>
<path id="Vector_3" d="M25.6309 149.59C30.1024 145.118 30.1024 137.868 25.6309 133.397C21.1594 128.925 13.9097 128.925 9.43817 133.397C4.96667 137.868 4.96666 145.118 9.43817 149.59C13.9097 154.061 21.1594 154.061 25.6309 149.59Z" fill="#263238"/>
<path id="Vector_4" d="M35.3809 135.297L25.9529 143.258L22.5528 139.232L31.9808 131.27C32.4772 130.851 33.1199 130.646 33.7674 130.701C34.4148 130.755 35.0141 131.065 35.4333 131.561L35.6656 131.836C35.8747 132.082 36.0333 132.367 36.1322 132.674C36.2311 132.981 36.2684 133.304 36.242 133.626C36.2155 133.947 36.1259 134.26 35.9781 134.547C35.8303 134.834 35.6274 135.089 35.3809 135.297V135.297Z" fill="#263238"/>
<path id="Vector_5" d="M23.4059 120.716V132.716C23.4059 132.809 23.369 132.898 23.3034 132.963C23.2377 133.029 23.1487 133.066 23.0559 133.066H18.4959C18.4031 133.066 18.314 133.029 18.2484 132.963C18.1828 132.898 18.1459 132.809 18.1459 132.716V120.716C18.1459 120.066 18.404 119.443 18.8635 118.983C19.3229 118.524 19.9461 118.266 20.5959 118.266H20.9559C21.6057 118.266 22.2288 118.524 22.6883 118.983C23.1478 119.443 23.4059 120.066 23.4059 120.716V120.716Z" fill="#263238"/>
<path id="Vector_6" d="M14.9149 120.761L17.5346 132.472C17.5549 132.562 17.5384 132.657 17.4886 132.736C17.4389 132.814 17.3601 132.87 17.2695 132.89L12.8195 133.885C12.7289 133.906 12.634 133.889 12.5556 133.839C12.4772 133.79 12.4218 133.711 12.4015 133.62L9.78176 121.91C9.6399 121.275 9.75575 120.611 10.1038 120.062C10.4519 119.514 11.0037 119.126 11.6378 118.984L11.9891 118.905C12.6232 118.763 13.2877 118.879 13.8364 119.227C14.3851 119.575 14.773 120.127 14.9149 120.761V120.761Z" fill="#263238"/>
<path id="Vector_7" d="M5.7803 123.696L11.7803 134.088C11.8267 134.169 11.8393 134.264 11.8153 134.354C11.7912 134.444 11.7326 134.52 11.6522 134.566L7.70311 136.846C7.62272 136.893 7.52719 136.905 7.43753 136.881C7.34786 136.857 7.27141 136.799 7.225 136.718L1.225 126.326C0.900105 125.763 0.812066 125.095 0.980242 124.467C1.14842 123.839 1.55904 123.304 2.12177 122.979L2.43354 122.799C2.99626 122.474 3.665 122.386 4.29264 122.554C4.92028 122.723 5.45541 123.133 5.7803 123.696V123.696Z" fill="#263238"/>
<path id="Vector_8" d="M72.186 191.706C69.7462 191.798 67.303 191.711 64.876 191.446C62.4375 191.36 60.0082 191.103 57.606 190.676C60.0457 190.584 62.4889 190.671 64.916 190.936C67.3544 191.021 69.7839 191.278 72.186 191.706Z" fill="white"/>
<path id="Vector_9" d="M34.5659 170.356C33.1476 168.29 31.8745 166.128 30.7559 163.886C29.4881 161.726 28.372 159.481 27.4159 157.166C28.8299 159.236 30.0995 161.401 31.2159 163.646C32.4902 165.8 33.6097 168.043 34.5659 170.356V170.356Z" fill="white"/>
<path id="Vector_10" d="M41.0859 179.756C41.0859 179.836 40.3159 179.466 39.0859 179.176C37.44 178.816 35.7339 178.833 34.0956 179.226C32.4572 179.619 30.9291 180.378 29.6259 181.446C28.6259 182.276 28.1459 182.936 28.0759 182.886C28.3503 182.224 28.7748 181.635 29.3159 181.166C30.6138 179.975 32.1941 179.135 33.9073 178.726C35.6205 178.316 37.4098 178.351 39.1059 178.826C39.8287 178.979 40.5063 179.298 41.0859 179.756V179.756Z" fill="white"/>
</g>
<g id="others">
<path id="Vector_11" d="M107.828 211.76C114.681 204.049 113.986 192.242 106.275 185.388C98.5636 178.535 86.7565 179.23 79.903 186.941C73.0494 194.652 73.7447 206.459 81.4559 213.313C89.1671 220.166 100.974 219.471 107.828 211.76Z" fill="#263238"/>
<path id="Vector_12" d="M93.866 218.046C89.5373 218.046 85.3426 216.545 81.9965 213.799C78.6504 211.053 76.36 207.231 75.5155 202.986C74.6711 198.74 75.3248 194.334 77.3653 190.516C79.4058 186.698 82.7069 183.707 86.7061 182.05C90.7052 180.394 95.155 180.175 99.2973 181.432C103.44 182.688 107.018 185.342 109.423 188.941C111.828 192.54 112.91 196.862 112.486 201.17C112.062 205.478 110.157 209.505 107.096 212.566C105.363 214.309 103.301 215.69 101.03 216.631C98.7589 217.571 96.324 218.052 93.866 218.046V218.046ZM93.866 180.686C89.5489 180.681 85.3639 182.174 82.024 184.909C78.684 187.644 76.3958 191.453 75.5491 195.686C74.7025 199.919 75.3498 204.315 77.3808 208.125C79.4118 211.934 82.7008 214.921 86.6875 216.578C90.6741 218.234 95.1117 218.457 99.2442 217.208C103.377 215.959 106.948 213.317 109.351 209.73C111.753 206.143 112.837 201.834 112.419 197.537C112 193.241 110.105 189.222 107.056 186.166C105.329 184.426 103.274 183.045 101.01 182.105C98.7458 181.164 96.3177 180.682 93.866 180.686V180.686Z" fill="#263238"/>
<path id="Vector_13" d="M268.494 296.056L281.102 290.694L244.723 205.159L232.116 210.52L268.494 296.056Z" fill="#6494FF"/>
<path id="Vector_14" d="M246.53 213.332C253.199 205.461 252.224 193.674 244.352 187.005C236.48 180.336 224.693 181.312 218.025 189.183C211.356 197.055 212.331 208.842 220.203 215.511C228.075 222.179 239.862 221.204 246.53 213.332Z" fill="#263238"/>
<path id="Vector_15" d="M232.316 220.006C229.385 220.007 226.495 219.321 223.878 218.001C221.262 216.682 218.991 214.766 217.25 212.409C215.508 210.052 214.345 207.319 213.853 204.43C213.36 201.541 213.553 198.577 214.416 195.776C215.439 192.472 217.357 189.517 219.959 187.239C222.56 184.96 225.743 183.448 229.152 182.869C232.562 182.291 236.065 182.669 239.272 183.963C242.48 185.256 245.266 187.413 247.32 190.195C249.375 192.976 250.619 196.273 250.912 199.719C251.206 203.164 250.538 206.624 248.983 209.713C247.428 212.802 245.048 215.399 242.105 217.217C239.163 219.034 235.774 219.999 232.316 220.006V220.006ZM232.316 182.626C228.864 182.629 225.48 183.591 222.541 185.403C219.603 187.215 217.224 189.806 215.671 192.889C214.117 195.973 213.45 199.426 213.742 202.866C214.034 206.306 215.275 209.598 217.327 212.374C219.378 215.151 222.16 217.304 225.362 218.594C228.565 219.884 232.062 220.261 235.465 219.681C238.869 219.102 242.045 217.59 244.64 215.314C247.235 213.037 249.148 210.085 250.166 206.786V206.786C251.619 202.058 251.136 196.948 248.824 192.576C246.513 188.204 242.561 184.927 237.836 183.466C236.029 182.906 234.148 182.623 232.256 182.626H232.316Z" fill="#263238"/>
<path id="Vector_16" d="M270.1 257.109C272.171 249.654 267.807 241.931 260.352 239.86C252.897 237.788 245.174 242.152 243.103 249.607C241.031 257.062 245.395 264.785 252.85 266.857C260.305 268.928 268.028 264.564 270.1 257.109Z" fill="#263238"/>
<path id="Vector_17" d="M277.726 308.416C284.05 308.416 289.176 303.29 289.176 296.966C289.176 290.642 284.05 285.516 277.726 285.516C271.402 285.516 266.276 290.642 266.276 296.966C266.276 303.29 271.402 308.416 277.726 308.416Z" fill="#263238"/>
<path id="Vector_18" d="M262.75 308.497L269.162 297.977L273.662 300.719L267.25 311.239C266.912 311.794 266.367 312.192 265.736 312.345C265.105 312.498 264.438 312.395 263.883 312.056L263.576 311.869C263.3 311.702 263.059 311.483 262.868 311.223C262.677 310.963 262.539 310.668 262.463 310.354C262.386 310.041 262.372 309.716 262.421 309.397C262.471 309.078 262.582 308.772 262.75 308.497V308.497Z" fill="#263238"/>
<path id="Vector_19" d="M278.714 318.531L274.914 307.148C274.885 307.06 274.892 306.964 274.933 306.881C274.975 306.798 275.047 306.735 275.135 306.705L279.461 305.261C279.549 305.232 279.645 305.239 279.728 305.28C279.811 305.322 279.874 305.394 279.904 305.482L283.703 316.865C283.801 317.171 283.838 317.494 283.812 317.815C283.785 318.136 283.696 318.448 283.548 318.734C283.401 319.02 283.199 319.274 282.953 319.482C282.708 319.69 282.424 319.848 282.117 319.946L281.776 320.06C281.167 320.255 280.506 320.204 279.933 319.918C279.361 319.633 278.924 319.135 278.714 318.531V318.531Z" fill="#263238"/>
<path id="Vector_20" d="M286.762 315.803L280.569 305.524C280.546 305.485 280.53 305.441 280.523 305.396C280.516 305.35 280.518 305.304 280.529 305.259C280.541 305.215 280.56 305.173 280.588 305.136C280.615 305.099 280.649 305.067 280.689 305.044L284.594 302.69C284.634 302.667 284.677 302.651 284.723 302.644C284.768 302.637 284.815 302.639 284.859 302.65C284.904 302.662 284.946 302.681 284.983 302.709C285.02 302.736 285.051 302.77 285.075 302.81L291.268 313.088C291.603 313.645 291.704 314.312 291.547 314.942C291.391 315.573 290.99 316.116 290.434 316.451L290.125 316.637C289.569 316.972 288.902 317.073 288.271 316.916C287.64 316.76 287.098 316.359 286.762 315.803V315.803Z" fill="#263238"/>
<path id="Vector_21" d="M294.493 310.135L285.511 302.178C285.442 302.116 285.399 302.029 285.394 301.937C285.388 301.844 285.42 301.753 285.481 301.684L288.498 298.278C288.56 298.208 288.647 298.166 288.739 298.161C288.832 298.155 288.923 298.186 288.993 298.248L297.974 306.206C298.461 306.637 298.756 307.243 298.795 307.892C298.835 308.54 298.614 309.178 298.184 309.664L297.945 309.934C297.513 310.417 296.907 310.71 296.261 310.747C295.614 310.785 294.978 310.565 294.493 310.135V310.135Z" fill="#263238"/>
<path id="Vector_22" d="M88.3159 179.906C88.3159 179.906 89.6659 311.046 163.256 313.606C236.846 316.166 239.936 180.846 239.936 179.906C239.936 179.906 231.246 160.356 164.126 161.116C97.0059 161.876 88.3159 179.906 88.3159 179.906Z" fill="#6494FF"/>
<path id="Vector_23" d="M129.636 156.826H191.836C195.895 156.826 199.186 153.535 199.186 149.476V148.406C199.186 144.347 195.895 141.056 191.836 141.056H129.636C125.577 141.056 122.286 144.347 122.286 148.406V149.476C122.286 153.535 125.577 156.826 129.636 156.826Z" fill="#263238"/>
<path id="Vector_24" d="M158.056 40.2158H163.426V13.0658H158.056V40.2158Z" fill="#263238"/>
<path id="Vector_25" d="M242.85 121.043C251.329 119.028 256.569 110.52 254.554 102.042C252.538 93.5628 244.031 88.323 235.552 90.3382C227.074 92.3535 221.834 100.861 223.849 109.339C225.864 117.818 234.371 123.058 242.85 121.043Z" fill="#6494FF"/>
<path id="Vector_26" d="M83.4023 120.018C91.9014 118.09 97.2285 109.638 95.3007 101.138C93.3728 92.6392 84.9201 87.3121 76.4209 89.2399C67.9218 91.1678 62.5947 99.6205 64.5225 108.12C66.4504 116.619 74.9031 121.946 83.4023 120.018Z" fill="#6494FF"/>
<path id="Vector_27" d="M157.616 34.3259C157.616 34.3259 93.456 33.5559 83.316 89.1659C73.176 144.776 127.416 145.776 143.026 146.826C150.096 147.306 165.236 147.356 178.596 147.116C208.176 146.606 229.076 140.886 236.186 113.446C237.033 110.228 237.565 106.936 237.776 103.616C239.646 73.4959 219.316 32.8459 157.616 34.3259Z" fill="#6494FF"/>
<path id="Vector_28" d="M204.156 118.966L110.946 120.416C108.62 120.457 106.309 120.039 104.145 119.186C101.982 118.333 100.007 117.061 98.3352 115.444C96.6633 113.827 95.3267 111.896 94.4019 109.762C93.4772 107.627 92.9824 105.332 92.9459 103.006V103.006C92.9062 100.68 93.3255 98.3686 94.1797 96.2046C95.0339 94.0407 96.3064 92.0663 97.9243 90.3945C99.5422 88.7228 101.474 87.3863 103.609 86.4617C105.744 85.5371 108.04 85.0424 110.366 85.0059L203.576 83.5559C205.902 83.5135 208.213 83.9306 210.378 84.7833C212.542 85.636 214.517 86.9074 216.19 88.5248C217.862 90.1422 219.198 92.0737 220.123 94.2086C221.047 96.3435 221.541 98.6398 221.576 100.966C221.617 103.292 221.199 105.604 220.345 107.769C219.491 109.933 218.219 111.908 216.601 113.58C214.982 115.252 213.05 116.589 210.915 117.513C208.779 118.437 206.483 118.931 204.156 118.966V118.966Z" fill="#263238"/>
<path id="Vector_29" d="M130.316 101.076C130.099 102.178 129.56 103.191 128.768 103.987C127.975 104.783 126.965 105.326 125.864 105.548C124.762 105.77 123.62 105.66 122.581 105.232C121.543 104.805 120.654 104.079 120.028 103.147C119.401 102.214 119.066 101.117 119.063 99.9937C119.06 98.8705 119.39 97.7716 120.012 96.836C120.634 95.9005 121.519 95.1703 122.555 94.7377C123.592 94.3052 124.734 94.1897 125.836 94.4059C126.568 94.5495 127.265 94.836 127.886 95.2489C128.508 95.6619 129.042 96.1933 129.458 96.8127C129.874 97.4321 130.164 98.1274 130.311 98.8589C130.458 99.5904 130.46 100.344 130.316 101.076V101.076Z" fill="white"/>
<path id="Vector_30" d="M195.406 100.036C195.191 101.139 194.654 102.153 193.862 102.951C193.07 103.748 192.06 104.293 190.958 104.516C189.857 104.739 188.714 104.631 187.674 104.204C186.635 103.777 185.745 103.052 185.118 102.12C184.491 101.187 184.154 100.09 184.151 98.9658C184.148 97.842 184.478 96.7426 185.1 95.8065C185.721 94.8704 186.607 94.1398 187.644 93.7072C188.681 93.2745 189.823 93.1592 190.926 93.3759C192.403 93.666 193.704 94.5303 194.544 95.779C195.384 97.0277 195.694 98.5587 195.406 100.036V100.036Z" fill="white"/>
<path id="Vector_31" d="M186.036 231.986C185.671 236.99 183.83 241.774 180.746 245.732C177.662 249.69 173.474 252.644 168.711 254.222C163.948 255.8 158.824 255.93 153.987 254.596C149.15 253.261 144.817 250.523 141.537 246.726C138.256 242.93 136.175 238.246 135.557 233.266C134.938 228.287 135.81 223.236 138.062 218.753C140.314 214.269 143.845 210.553 148.208 208.076C152.572 205.599 157.572 204.472 162.576 204.836C169.286 205.327 175.527 208.463 179.926 213.554C184.326 218.645 186.523 225.275 186.036 231.986V231.986Z" fill="#263238"/>
<path id="Vector_32" d="M179.166 231.486C178.899 235.133 177.557 238.619 175.308 241.504C173.06 244.388 170.007 246.541 166.535 247.69C163.063 248.839 159.329 248.933 155.804 247.959C152.279 246.986 149.121 244.989 146.731 242.221C144.341 239.454 142.825 236.039 142.376 232.41C141.926 228.781 142.563 225.099 144.205 221.832C145.848 218.565 148.422 215.858 151.603 214.053C154.784 212.249 158.429 211.429 162.076 211.696C164.498 211.872 166.862 212.524 169.031 213.614C171.201 214.704 173.135 216.211 174.723 218.049C176.31 219.887 177.519 222.02 178.282 224.325C179.044 226.631 179.344 229.064 179.166 231.486V231.486Z" fill="white"/>
<path id="Vector_33" d="M170.256 234.846C170.115 233.836 170.058 232.815 170.086 231.796C170.036 229.886 169.996 227.156 169.996 223.796L170.196 224.166L160.686 218.616H161.216L151.616 224.006C151.356 224.446 151.966 223.416 151.906 223.526V224.946V226.376C151.906 227.316 151.906 228.256 151.856 229.176C151.856 231.016 151.786 232.796 151.756 234.516L151.496 234.056L160.896 239.796H160.476C163.406 238.216 165.826 236.956 167.476 236.096C168.364 235.59 169.29 235.156 170.246 234.796C169.5 235.404 168.696 235.936 167.846 236.386C166.226 237.386 163.846 238.796 160.846 240.526L160.636 240.646L160.426 240.526L150.906 234.976L150.646 234.826V234.506C150.646 232.786 150.666 231.006 150.706 229.166C150.706 228.246 150.706 227.316 150.706 226.366V224.946V223.566C150.646 223.676 151.256 222.656 150.996 223.086L160.626 217.746L160.906 217.596L161.166 217.756L170.556 223.496L170.766 223.626V223.866C170.656 227.326 170.546 230.106 170.446 231.996C170.471 232.95 170.408 233.904 170.256 234.846Z" fill="#6494FF"/>
<path id="Vector_34" d="M167.005 18.7736C170.461 15.3175 170.461 9.71399 167.005 6.25785C163.548 2.80171 157.945 2.80172 154.489 6.25786C151.033 9.714 151.033 15.3175 154.489 18.7736C157.945 22.2298 163.548 22.2298 167.005 18.7736Z" fill="#6494FF"/>
<path id="Vector_35" d="M146.606 98.4558C147.026 98.5058 146.816 100.456 148.056 103.126C148.758 104.658 149.781 106.022 151.056 107.126C152.55 108.44 154.409 109.267 156.386 109.496C158.373 109.624 160.352 109.15 162.066 108.136C163.516 107.292 164.77 106.151 165.746 104.786C167.446 102.416 167.596 100.426 168.016 100.456C168.186 100.456 168.356 100.956 168.356 101.896C168.318 103.235 167.976 104.548 167.356 105.736C166.424 107.531 165.047 109.056 163.356 110.166C161.265 111.639 158.719 112.32 156.172 112.087C153.626 111.855 151.245 110.723 149.456 108.896C147.996 107.499 146.921 105.75 146.336 103.816C145.919 102.526 145.809 101.156 146.016 99.8158C146.186 98.8858 146.446 98.4258 146.606 98.4558Z" fill="white"/>
<path id="Vector_36" d="M232.036 124.366C231.936 124.366 233.086 122.566 234.196 119.416C235.576 115.29 236.449 111.012 236.796 106.676C237.196 102.355 237.297 98.0109 237.096 93.6758C237.026 92.0058 236.946 90.6758 236.866 89.6758C236.798 89.1922 236.782 88.7029 236.816 88.2158C236.944 88.687 237.028 89.1691 237.066 89.6558C237.206 90.5858 237.346 91.9358 237.466 93.6558C237.78 98.0258 237.729 102.414 237.316 106.776C236.964 111.153 236.033 115.464 234.546 119.596C234.075 120.842 233.507 122.049 232.846 123.206C232.61 123.615 232.339 124.003 232.036 124.366V124.366Z" fill="#263238"/>
<path id="Vector_37" d="M83.4359 87.3059C83.3793 87.7915 83.2755 88.2705 83.1259 88.7359C82.9959 89.1859 82.856 89.7359 82.726 90.3959C82.596 91.0559 82.3959 91.7759 82.2759 92.6059C81.9253 94.5334 81.6916 96.4802 81.5759 98.4359C81.4414 100.829 81.4748 103.228 81.6759 105.616C81.8994 108 82.287 110.365 82.8359 112.696C83.2951 114.602 83.8695 116.479 84.5559 118.316C84.8259 119.106 85.1359 119.796 85.3859 120.416C85.6359 121.036 85.8759 121.556 86.0759 121.976C86.3039 122.408 86.4914 122.86 86.6359 123.326C86.3514 122.929 86.1037 122.508 85.8959 122.066C85.6132 121.566 85.3562 121.052 85.1259 120.526C84.8459 119.926 84.5059 119.236 84.2159 118.446C83.4735 116.614 82.8587 114.733 82.3759 112.816C81.7907 110.463 81.3829 108.07 81.1559 105.656C80.9522 103.244 80.9321 100.821 81.0959 98.4059C81.2354 96.4329 81.5094 94.4716 81.9159 92.5359C82.0659 91.7059 82.2759 90.9759 82.4459 90.3259C82.6159 89.6759 82.7759 89.1259 82.9259 88.6759C83.0585 88.2062 83.2291 87.748 83.4359 87.3059V87.3059Z" fill="#263238"/>
<path id="Vector_38" d="M87.976 179.796L88.3559 179.906L89.476 180.286L93.7359 181.786L96.8159 182.886C97.9459 183.266 99.1959 183.626 100.526 184.036C103.196 184.826 106.206 185.856 109.626 186.656L114.956 188.026C116.816 188.496 118.776 188.846 120.796 189.286C124.796 190.206 129.186 190.836 133.796 191.576C143.765 192.944 153.813 193.662 163.876 193.726C173.939 193.667 183.987 192.949 193.956 191.576C198.536 190.836 202.896 190.216 206.956 189.286C208.956 188.856 210.956 188.506 212.796 188.036L218.136 186.666C221.546 185.866 224.556 184.836 227.226 184.046C228.556 183.636 229.806 183.276 230.936 182.896L234.016 181.796L238.276 180.296L239.396 179.916C239.522 179.866 239.653 179.829 239.786 179.806L239.416 179.966L238.316 180.396L234.086 181.986L230.936 183.166C229.816 183.556 228.566 183.926 227.236 184.356C224.566 185.176 221.566 186.226 218.146 187.056L212.806 188.456C210.956 188.936 208.986 189.296 206.966 189.746C202.966 190.686 198.566 191.326 193.966 192.086C183.976 193.488 173.904 194.219 163.816 194.276C153.732 194.212 143.663 193.477 133.676 192.076C129.086 191.326 124.676 190.676 120.676 189.736C118.676 189.286 116.676 188.926 114.836 188.446L109.496 187.046C106.076 186.216 103.076 185.166 100.406 184.346C99.0759 183.916 97.8359 183.546 96.7059 183.156L93.6359 182.006L89.4059 180.416L88.3059 179.986C88.1902 179.933 88.0797 179.87 87.976 179.796Z" fill="#263238"/>
<g id="Group" opacity="0.3">
<path id="Vector_39" opacity="0.3" d="M88.3159 179.906C88.3159 179.906 97.0059 161.906 164.126 161.116C231.246 160.326 239.936 179.906 239.936 179.906C239.936 179.906 172.196 213.296 88.3159 179.906Z" fill="black"/>
</g>
<path id="Vector_40" d="M149.486 38.4859C149.409 38.4932 149.332 38.4932 149.256 38.4859L148.586 38.5559C147.986 38.6159 147.106 38.6359 145.976 38.7659C142.787 39.0754 139.624 39.5999 136.506 40.3359C120.381 44.029 106.157 53.4803 96.5059 66.9159C91.843 73.3724 88.3126 80.5752 86.0659 88.2159C85.7159 89.2959 85.5259 90.1559 85.3559 90.7259L85.1659 91.3859C85.1479 91.4621 85.1211 91.536 85.0859 91.6059C85.0726 91.5298 85.0726 91.452 85.0859 91.3759C85.0859 91.1959 85.1659 90.9759 85.2259 90.7059C85.3659 90.1259 85.5159 89.2559 85.8359 88.1559C86.6705 85.0492 87.7403 82.0104 89.0359 79.0659C93.3102 69.2809 99.8174 60.6332 108.036 53.8159C116.289 47.05 126.012 42.3103 136.426 39.9759C139.562 39.2634 142.748 38.792 145.956 38.5659C147.096 38.4659 147.956 38.4759 148.576 38.4459H149.256C149.416 38.4659 149.486 38.4759 149.486 38.4859Z" fill="white"/>
<path id="Vector_41" d="M86.7159 115.466C86.3152 114.847 86.0054 114.173 85.7959 113.466C84.6098 110.124 84.057 106.59 84.1659 103.046C84.1374 102.31 84.2251 101.574 84.4259 100.866C84.5859 100.866 84.3659 104.206 85.0059 108.246C85.6459 112.286 86.8659 115.406 86.7159 115.466Z" fill="white"/>
<path id="Vector_42" d="M69.886 110.296C69.886 110.296 69.656 110.136 69.346 109.756C68.9041 109.217 68.5249 108.63 68.216 108.006C67.1481 105.939 66.7395 103.594 67.0452 101.287C67.351 98.9809 68.3564 96.8235 69.926 95.1059C70.3857 94.5798 70.906 94.1099 71.476 93.7059C71.6717 93.5412 71.8952 93.4125 72.136 93.3259C72.196 93.4059 71.296 94.0159 70.206 95.3259C68.7754 97.0392 67.8601 99.123 67.5663 101.336C67.2724 103.548 67.6121 105.799 68.546 107.826C69.246 109.416 69.956 110.236 69.886 110.296Z" fill="white"/>
<path id="Vector_43" d="M161.316 6.34593C160.536 6.26005 159.749 6.24331 158.966 6.29593C158.033 6.37777 157.132 6.67217 156.33 7.15653C155.529 7.6409 154.85 8.30237 154.344 9.09018C153.838 9.878 153.519 10.7712 153.412 11.7013C153.305 12.6315 153.412 13.5738 153.726 14.4559C153.996 15.1876 154.331 15.8937 154.726 16.5659C154.726 16.5659 154.526 16.4459 154.246 16.1259C153.862 15.663 153.557 15.1391 153.346 14.5759C152.964 13.6421 152.813 12.6302 152.906 11.6257C152.998 10.6212 153.331 9.65372 153.877 8.80516C154.422 7.95661 155.164 7.25193 156.039 6.75076C156.915 6.24958 157.898 5.96666 158.906 5.92594C159.505 5.8844 160.106 5.94184 160.686 6.09593C161.136 6.16593 161.316 6.31593 161.316 6.34593Z" fill="white"/>
<path id="Vector_44" d="M248.476 98.1658C248.366 98.2858 246.816 96.7958 244.476 95.6758C242.136 94.5558 240.006 94.2258 240.026 94.0658C241.656 94.0252 243.268 94.4187 244.696 95.2058C246.199 95.8346 247.505 96.8572 248.476 98.1658V98.1658Z" fill="white"/>
<path id="Vector_45" d="M111.316 273.236C111.27 273.176 111.23 273.113 111.196 273.046L110.866 272.456C110.566 271.886 110.166 271.126 109.646 270.156C109.386 269.656 109.106 269.096 108.786 268.496L107.846 266.496C107.166 265.046 106.406 263.396 105.656 261.496C105.276 260.566 104.876 259.586 104.456 258.576C104.036 257.566 103.676 256.466 103.266 255.356C102.406 253.146 101.676 250.716 100.826 248.196C99.2559 243.096 97.7159 237.446 96.3659 231.446C95.0159 225.446 94.0359 219.656 93.2359 214.386C92.4359 209.116 91.9159 204.386 91.5959 200.326C91.4059 198.326 91.2859 196.506 91.1859 194.906C91.0859 193.306 90.9959 191.906 90.9659 190.806C90.9359 189.706 90.9059 188.856 90.8759 188.216V187.546C90.8651 187.47 90.8651 187.392 90.8759 187.316C90.8874 187.392 90.8874 187.47 90.8759 187.546L90.9359 188.216C90.9359 188.846 91.0459 189.716 91.1159 190.796C91.1859 191.876 91.2859 193.296 91.4259 194.886C91.5659 196.476 91.6959 198.296 91.9159 200.296C92.2759 204.296 92.9159 209.056 93.6659 214.296C94.4159 219.536 95.5059 225.296 96.8259 231.296C98.1459 237.296 99.6959 242.936 101.226 248.026C102.076 250.546 102.786 252.966 103.626 255.176C104.026 256.296 104.406 257.366 104.786 258.396L105.946 261.336C106.666 263.206 107.406 264.866 108.066 266.336L108.966 268.336C109.256 268.946 109.536 269.506 109.786 270.016L110.906 272.356L111.186 272.966C111.246 273.047 111.291 273.138 111.316 273.236Z" fill="white"/>
<path id="Vector_46" d="M146.816 304.766C146.422 304.759 146.03 304.712 145.646 304.626C144.588 304.437 143.543 304.184 142.516 303.866C140.991 303.402 139.501 302.83 138.056 302.156C136.296 301.307 134.605 300.324 132.996 299.216C131.405 298.079 129.907 296.819 128.516 295.446C127.389 294.317 126.346 293.107 125.396 291.826C124.745 290.971 124.153 290.072 123.626 289.136C123.41 288.807 123.232 288.455 123.096 288.086C123.176 288.036 124.016 289.486 125.686 291.606C126.668 292.838 127.726 294.007 128.856 295.106C131.624 297.795 134.8 300.029 138.266 301.726C139.682 302.41 141.138 303.008 142.626 303.516C145.186 304.376 146.836 304.666 146.816 304.766Z" fill="white"/>
<path id="Vector_47" d="M162.156 258.506C161.925 258.546 161.691 258.569 161.456 258.576C160.791 258.632 160.123 258.652 159.456 258.636C156.969 258.581 154.502 258.18 152.126 257.446C150.484 256.934 148.885 256.292 147.346 255.526C145.581 254.618 143.906 253.543 142.346 252.316C138.731 249.539 135.882 245.889 134.066 241.708C132.251 237.527 131.528 232.953 131.966 228.416C132.129 226.447 132.481 224.498 133.016 222.596C133.495 220.946 134.114 219.34 134.866 217.796C135.951 215.556 137.344 213.479 139.006 211.626C139.452 211.119 139.926 210.639 140.426 210.186C140.591 210.02 140.769 209.866 140.956 209.726C140.956 209.726 140.296 210.436 139.156 211.726C137.556 213.608 136.211 215.692 135.156 217.926C133.583 221.217 132.647 224.777 132.396 228.416C131.991 232.872 132.712 237.359 134.495 241.464C136.277 245.569 139.063 249.159 142.596 251.906C144.11 253.125 145.738 254.196 147.456 255.106C148.962 255.9 150.53 256.569 152.146 257.106C154.487 257.865 156.918 258.312 159.376 258.436C161.186 258.506 162.156 258.446 162.156 258.506Z" fill="white"/>
<path id="Vector_48" d="M188.756 80.3259C188.756 80.4659 176.476 80.5859 161.336 80.5859C146.196 80.5859 133.906 80.4659 133.906 80.3259C133.906 80.1859 146.186 80.0659 161.336 80.0659C176.486 80.0659 188.756 80.1659 188.756 80.3259Z" fill="white"/>
<path id="Vector_49" d="M141.956 142.856C141.806 142.898 141.652 142.922 141.496 142.926L140.156 143.046C139.576 143.096 138.866 143.136 138.036 143.156C137.206 143.176 136.266 143.216 135.226 143.156C133.136 143.156 130.656 143.006 127.906 142.716C124.93 142.37 121.975 141.859 119.056 141.186C116.143 140.487 113.272 139.626 110.456 138.606C108.161 137.766 105.912 136.808 103.716 135.736C102.716 135.296 101.946 134.836 101.216 134.446C100.486 134.056 99.8659 133.706 99.3659 133.446L98.2159 132.746C98.0796 132.67 97.9521 132.58 97.8359 132.476C97.8359 132.476 97.9959 132.476 98.2659 132.656L99.4659 133.266C99.9759 133.546 100.606 133.876 101.346 134.266C102.086 134.656 102.926 135.056 103.876 135.476C105.756 136.356 108.046 137.296 110.626 138.226C116.233 140.236 122.05 141.605 127.966 142.306C130.686 142.626 133.156 142.806 135.226 142.856C136.226 142.916 137.226 142.856 138.036 142.856C138.846 142.856 139.566 142.856 140.146 142.856H141.486C141.642 142.83 141.8 142.83 141.956 142.856V142.856Z" fill="white"/>
<path id="Vector_50" d="M221.786 187.916C221.712 187.965 221.631 188.002 221.546 188.026L220.826 188.296L218.046 189.296C216.836 189.736 215.356 190.246 213.606 190.756C211.856 191.266 209.886 191.926 207.656 192.486L204.176 193.406C202.966 193.716 201.686 193.976 200.376 194.286C197.756 194.916 194.916 195.416 191.936 195.986C178.956 198.247 165.765 199.055 152.606 198.396C149.606 198.206 146.696 198.056 144.016 197.746C142.676 197.606 141.376 197.506 140.136 197.336L136.566 196.846C134.286 196.576 132.246 196.166 130.456 195.846C128.666 195.526 127.116 195.226 125.866 194.936L122.986 194.296L122.236 194.116C122.149 194.102 122.065 194.075 121.986 194.036C122.076 194.028 122.166 194.028 122.256 194.036L123.006 194.166L125.906 194.716C127.166 194.966 128.706 195.256 130.506 195.526C132.306 195.796 134.336 196.186 136.616 196.436L140.176 196.886C141.416 197.046 142.716 197.136 144.056 197.266C146.726 197.556 149.606 197.686 152.626 197.866C158.676 198.116 165.326 198.126 172.306 197.716C179.286 197.306 185.876 196.436 191.846 195.456C194.846 194.906 197.666 194.456 200.286 193.816C201.596 193.516 202.876 193.266 204.086 192.966L207.566 192.076C209.796 191.546 211.766 190.926 213.516 190.426C215.266 189.926 216.766 189.426 217.976 189.056L220.786 188.156L221.526 187.936L221.786 187.916Z" fill="white"/>
</g>
</g>
</svg>
