<svg width="388" height="322" viewBox="0 0 388 322" fill="none" xmlns="http://www.w3.org/2000/svg">
<g id="customer-service">
<g id="shadow" opacity="0.55">
<path id="freepik--path--inject-46" d="M194 321.56C301.082 321.56 387.89 316.492 387.89 310.24C387.89 303.988 301.082 298.92 194 298.92C86.9175 298.92 0.109985 303.988 0.109985 310.24C0.109985 316.492 86.9175 321.56 194 321.56Z" fill="#F5F5F5"/>
</g>
<g id="table">
<path id="Vector" d="M349.28 212.33H38.71V247.49H349.28V212.33Z" fill="#407BFF"/>
<path id="Vector_2" opacity="0.3" d="M349.29 212.33H282.67V247.49H349.29V212.33Z" fill="black"/>
<path id="Vector_3" d="M73 247.49H38.71V310.24H73V247.49Z" fill="#407BFF"/>
<path id="Vector_4" opacity="0.3" d="M38.72 247.49V251L63 258.33V310.24H73V247.49H38.72Z" fill="black"/>
<path id="Vector_5" d="M349.29 247.49H315V310.24H349.29V247.49Z" fill="#407BFF"/>
<path id="Vector_6" opacity="0.2" d="M349.29 247.49H315V310.24H349.29V247.49Z" fill="black"/>
<path id="Vector_7" opacity="0.3" d="M315 247.49V251L339.29 258.33V310.24H349.29V247.49H315Z" fill="black"/>
<path id="Vector_8" d="M282.67 247.49H248.38V310.24H282.67V247.49Z" fill="#407BFF"/>
<path id="Vector_9" opacity="0.3" d="M248.38 247.49V251L272.67 258.33V310.24H282.67V247.49H248.38Z" fill="black"/>
<path id="Vector_10" d="M139.62 247.49H105.33V310.24H139.62V247.49Z" fill="#407BFF"/>
<path id="Vector_11" opacity="0.2" d="M139.62 247.49H105.33V310.24H139.62V247.49Z" fill="black"/>
<path id="Vector_12" opacity="0.3" d="M105.33 247.49V251L129.62 258.33V310.24H139.62V247.49H105.33Z" fill="black"/>
</g>
<g id="laptop">
<path id="Vector_13" d="M306.48 205.42H116.6C116.008 205.424 115.422 205.306 114.878 205.073C114.335 204.839 113.845 204.495 113.441 204.063C113.037 203.631 112.727 203.119 112.531 202.561C112.334 202.003 112.256 201.41 112.3 200.82L120.12 76.73C120.219 75.4932 120.774 74.3374 121.678 73.4872C122.582 72.6371 123.769 72.1533 125.01 72.13H314.88C315.472 72.1256 316.058 72.2439 316.602 72.4775C317.145 72.7111 317.635 73.0549 318.039 73.4871C318.443 73.9194 318.753 74.4308 318.949 74.9889C319.146 75.5471 319.224 76.1399 319.18 76.73L311.36 200.82C311.261 202.055 310.707 203.21 309.805 204.059C308.904 204.909 307.719 205.394 306.48 205.42V205.42Z" fill="#263238"/>
<path id="Vector_14" opacity="0.6" d="M306.48 205.42H116.6C116.008 205.424 115.422 205.306 114.878 205.073C114.335 204.839 113.845 204.495 113.441 204.063C113.037 203.631 112.727 203.119 112.531 202.561C112.334 202.003 112.256 201.41 112.3 200.82L120.12 76.73C120.219 75.4932 120.774 74.3374 121.678 73.4872C122.582 72.6371 123.769 72.1533 125.01 72.13H314.88C315.472 72.1256 316.058 72.2439 316.602 72.4775C317.145 72.7111 317.635 73.0549 318.039 73.4871C318.443 73.9194 318.753 74.4308 318.949 74.9889C319.146 75.5471 319.224 76.1399 319.18 76.73L311.36 200.82C311.261 202.055 310.707 203.21 309.805 204.059C308.904 204.909 307.719 205.394 306.48 205.42V205.42Z" fill="black"/>
<path id="Vector_15" d="M305.06 205.42H115.19C114.597 205.426 114.01 205.309 113.465 205.076C112.92 204.843 112.43 204.499 112.025 204.067C111.62 203.634 111.309 203.122 111.112 202.563C110.915 202.005 110.836 201.411 110.88 200.82L118.7 76.73C118.799 75.4932 119.354 74.3374 120.258 73.4873C121.162 72.6371 122.349 72.1534 123.59 72.13H313.46C314.052 72.1241 314.639 72.2414 315.183 72.4745C315.728 72.7075 316.218 73.0513 316.622 73.4839C317.027 73.9165 317.337 74.4285 317.532 74.9873C317.728 75.5462 317.806 76.1396 317.76 76.73L309.94 200.82C309.841 202.055 309.287 203.21 308.386 204.059C307.484 204.909 306.299 205.394 305.06 205.42V205.42Z" fill="#263238"/>
<path id="Vector_16" d="M304.82 207H78.89C77.8499 206.991 76.8284 207.276 75.9436 207.823C75.0588 208.369 74.3468 209.156 73.89 210.09C73.7743 210.333 73.7223 210.601 73.7392 210.869C73.756 211.138 73.8411 211.397 73.9863 211.623C74.1314 211.85 74.332 212.035 74.5689 212.162C74.8057 212.29 75.0712 212.354 75.34 212.35H308.32C308.589 212.354 308.854 212.29 309.091 212.162C309.328 212.035 309.529 211.85 309.674 211.623C309.819 211.397 309.904 211.138 309.921 210.869C309.938 210.601 309.886 210.333 309.77 210.09C309.319 209.162 308.615 208.379 307.74 207.833C306.864 207.286 305.852 206.998 304.82 207V207Z" fill="#263238"/>
<path id="Vector_17" opacity="0.6" d="M304.82 207H272.69C271.658 206.997 270.645 207.285 269.77 207.831C268.894 208.378 268.19 209.161 267.74 210.09C267.625 210.332 267.573 210.599 267.589 210.867C267.606 211.134 267.69 211.393 267.834 211.619C267.978 211.845 268.177 212.031 268.412 212.159C268.648 212.287 268.912 212.352 269.18 212.35H308.32C308.589 212.354 308.854 212.29 309.091 212.162C309.328 212.035 309.529 211.85 309.674 211.623C309.819 211.397 309.904 211.138 309.921 210.869C309.938 210.601 309.886 210.333 309.77 210.09C309.319 209.162 308.615 208.379 307.74 207.833C306.864 207.286 305.852 206.998 304.82 207V207Z" fill="black"/>
<path id="Vector_18" d="M284.9 210.9H276.6C276.408 210.897 276.225 210.819 276.09 210.683C275.956 210.546 275.88 210.362 275.88 210.17V210.17C275.88 209.978 275.956 209.794 276.09 209.657C276.225 209.521 276.408 209.443 276.6 209.44H284.9C284.996 209.44 285.091 209.459 285.179 209.496C285.268 209.532 285.348 209.586 285.416 209.654C285.484 209.722 285.538 209.802 285.574 209.891C285.611 209.979 285.63 210.074 285.63 210.17V210.17C285.63 210.266 285.611 210.361 285.574 210.449C285.538 210.538 285.484 210.618 285.416 210.686C285.348 210.754 285.268 210.808 285.179 210.844C285.091 210.881 284.996 210.9 284.9 210.9V210.9Z" fill="#407BFF"/>
<path id="Vector_19" opacity="0.7" d="M178.17 210.9H169.88C169.686 210.9 169.501 210.823 169.364 210.686C169.227 210.549 169.15 210.364 169.15 210.17V210.17C169.15 210.074 169.169 209.979 169.206 209.891C169.242 209.802 169.296 209.722 169.364 209.654C169.432 209.586 169.512 209.532 169.601 209.496C169.689 209.459 169.784 209.44 169.88 209.44H178.17C178.266 209.44 178.361 209.459 178.449 209.496C178.538 209.532 178.618 209.586 178.686 209.654C178.754 209.722 178.808 209.802 178.844 209.891C178.881 209.979 178.9 210.074 178.9 210.17C178.9 210.364 178.823 210.549 178.686 210.686C178.549 210.823 178.364 210.9 178.17 210.9V210.9Z" fill="white"/>
<path id="Vector_20" d="M293.49 209.44H288.06C287.729 209.44 287.46 209.709 287.46 210.04V210.3C287.46 210.631 287.729 210.9 288.06 210.9H293.49C293.821 210.9 294.09 210.631 294.09 210.3V210.04C294.09 209.709 293.821 209.44 293.49 209.44Z" fill="#407BFF"/>
<path id="Vector_21" d="M115.16 196.34L122.42 81.21C122.457 80.7297 122.673 80.2808 123.025 79.9514C123.376 79.622 123.838 79.436 124.32 79.43H311.81C312.04 79.4265 312.268 79.471 312.479 79.5607C312.691 79.6504 312.881 79.7833 313.038 79.9509C313.196 80.1184 313.316 80.317 313.392 80.5338C313.468 80.7506 313.498 80.981 313.48 81.21L306.23 196.34C306.19 196.821 305.972 197.27 305.619 197.599C305.266 197.929 304.803 198.114 304.32 198.12H116.84C116.61 198.122 116.383 198.076 116.171 197.986C115.96 197.896 115.77 197.763 115.612 197.596C115.454 197.429 115.333 197.231 115.255 197.015C115.177 196.799 115.145 196.569 115.16 196.34V196.34Z" fill="white"/>
<path id="Vector_22" opacity="0.1" d="M221.82 75.88L159.37 194.58H113.3C113.069 194.583 112.84 194.539 112.627 194.449C112.414 194.358 112.223 194.225 112.064 194.056C111.906 193.888 111.785 193.688 111.709 193.47C111.632 193.252 111.602 193.02 111.62 192.79L118.88 77.67C118.917 77.1887 119.133 76.7386 119.484 76.4076C119.835 76.0766 120.297 75.8885 120.78 75.88H221.82Z" fill="#407BFF"/>
<path id="Vector_23" opacity="0.1" d="M276.51 75.88L214.06 194.58H199.5L261.95 75.88H276.51Z" fill="#407BFF"/>
<path id="Vector_24" opacity="0.1" d="M309.94 77.67L302.68 192.79C302.645 193.272 302.43 193.724 302.079 194.055C301.727 194.386 301.263 194.574 300.78 194.58H229.78L292.23 75.88H308.23C308.463 75.8739 308.695 75.9166 308.911 76.0054C309.126 76.0942 309.321 76.2272 309.482 76.3959C309.643 76.5645 309.767 76.765 309.846 76.9844C309.925 77.2039 309.957 77.4374 309.94 77.67V77.67Z" fill="#407BFF"/>
</g>
<g id="woman">
<path id="Vector_25" opacity="0.4" d="M219.63 76C219.603 76.3628 219.441 76.7022 219.176 76.9519C218.912 77.2016 218.564 77.3436 218.2 77.3501C218.026 77.352 217.854 77.3177 217.694 77.2493C217.535 77.181 217.391 77.0801 217.272 76.953C217.154 76.826 217.063 76.6756 217.006 76.5116C216.948 76.3475 216.926 76.1733 216.94 76C216.965 75.6365 217.126 75.2957 217.391 75.0456C217.656 74.7954 218.006 74.6542 218.37 74.65C218.544 74.6481 218.716 74.6824 218.876 74.7508C219.036 74.8191 219.179 74.92 219.298 75.0471C219.416 75.1741 219.507 75.3245 219.564 75.4885C219.622 75.6526 219.644 75.8268 219.63 76V76Z" fill="white"/>
<path id="Vector_26" d="M188.65 48.39C183.18 54.65 180.02 73.84 184.07 83.28C188.12 92.72 141.13 102.17 179.9 117.51C218.67 132.85 249.68 115.06 238.46 99.17C227.24 83.28 239.67 56.82 226.68 50.17C214.94 44.11 199.61 35.84 188.65 48.39Z" fill="#263238"/>
<path id="Vector_27" d="M177.06 125.66C175.01 132.66 172.83 139.66 170.57 146.66C168.31 153.66 165.96 160.58 163.47 167.53L162.52 170.15L162.04 171.46L161.89 171.85L161.65 172.44C161.5 172.82 161.27 173.23 161.07 173.62C160.092 175.406 158.634 176.881 156.86 177.88C155.25 178.755 153.452 179.228 151.62 179.26C149.05 179.273 146.504 178.773 144.13 177.79C142.187 177.001 140.305 176.069 138.5 175C131.943 170.968 125.934 166.108 120.62 160.54L124.93 155.46C126.38 156.39 127.93 157.38 129.43 158.31C130.93 159.24 132.5 160.14 134.02 161.03C136.998 162.773 140.073 164.346 143.23 165.74C144.668 166.374 146.153 166.899 147.67 167.31C148.719 167.658 149.829 167.787 150.93 167.69C151.21 167.69 151.16 167.53 150.93 167.62C150.7 167.71 150.45 167.97 150.44 167.94C150.43 167.91 150.44 167.94 150.44 167.88C150.445 167.86 150.445 167.84 150.44 167.82L150.52 167.57L150.9 166.28L151.67 163.68L157.78 142.68C159.86 135.68 162 128.68 164.2 121.68L177.06 125.66Z" fill="#D89B26"/>
<path id="Vector_28" d="M124.62 155.3L113 151L117.61 163.28C117.61 163.28 125.81 164.46 128.99 160.15L126.4 156.68C125.951 156.059 125.333 155.58 124.62 155.3V155.3Z" fill="#D89B26"/>
<path id="Vector_29" d="M102.75 154.57L107.17 164.64L117.66 163.26L113.04 150.98L102.75 154.57Z" fill="#D89B26"/>
<path id="Vector_30" d="M168.58 107.55C163.26 108.9 159.58 130.77 159.58 130.77L174.23 140.77C174.23 140.77 188.23 118.71 184.18 112.87C179.88 106.74 176.33 105.58 168.58 107.55Z" fill="#407BFF"/>
<path id="Vector_31" opacity="0.5" d="M168.58 107.55C163.26 108.9 159.58 130.77 159.58 130.77L174.23 140.77C174.23 140.77 188.23 118.71 184.18 112.87C179.88 106.74 176.33 105.58 168.58 107.55Z" fill="white"/>
<path id="Vector_32" opacity="0.2" d="M168.1 115.5L179.47 118.13L180.56 129.26C178.634 133.189 176.508 137.018 174.19 140.73L165.3 134.73C165.69 129.58 166.65 119 168.1 115.5Z" fill="black"/>
<path id="Vector_33" d="M168.58 107.55C168.58 107.55 162.43 109.71 174.74 185.37H227.1C226.22 164.06 226.2 150.91 236.38 107.18C229.051 105.665 221.621 104.685 214.15 104.25C205.34 103.82 198.15 103.54 190.37 104.25C180.16 105.18 168.58 107.55 168.58 107.55Z" fill="#407BFF"/>
<path id="Vector_34" opacity="0.5" d="M168.58 107.55C168.58 107.55 162.43 109.71 174.74 185.37H227.1C226.22 164.06 226.2 150.91 236.38 107.18C229.051 105.665 221.621 104.685 214.15 104.25C205.34 103.82 198.15 103.54 190.37 104.25C180.16 105.18 168.58 107.55 168.58 107.55Z" fill="white"/>
<path id="Vector_35" opacity="0.2" d="M224.06 127.48L230.82 133.24C229.38 140.89 228.41 147.24 227.82 152.93C226.53 147.25 223.31 131.83 224.06 127.48Z" fill="black"/>
<path id="Vector_36" d="M211.79 77.47C210.29 85.12 208.79 99.14 214.15 104.25C214.15 104.25 209.15 115.71 195.9 115.71C182.65 115.71 190.37 104.25 190.37 104.25C198.9 102.25 198.68 95.88 197.2 89.94L211.79 77.47Z" fill="#D89B26"/>
<path id="Vector_37" d="M212.45 101.39C211.19 103.94 207.13 109.77 195.79 111.85C195.475 111.908 195.149 111.844 194.88 111.67C192.76 110.19 191.44 107.06 192.37 103.43C192.432 103.207 192.43 102.971 192.364 102.749C192.299 102.527 192.173 102.328 192 102.174C191.827 102.02 191.615 101.917 191.387 101.878C191.159 101.838 190.925 101.863 190.71 101.95C189.839 102.315 189.002 102.756 188.21 103.27C188.036 103.385 187.895 103.544 187.8 103.73C186.97 105.29 183.61 112.93 193.75 117.64C193.912 117.709 194.084 117.75 194.26 117.76C200.26 117.88 210.75 116.7 217.38 104.76C217.498 104.544 217.551 104.299 217.531 104.054C217.512 103.808 217.421 103.574 217.27 103.38C216.379 102.405 215.344 101.572 214.2 100.91C214.056 100.818 213.894 100.756 213.725 100.731C213.556 100.705 213.383 100.715 213.218 100.76C213.053 100.805 212.899 100.885 212.767 100.993C212.635 101.102 212.527 101.237 212.45 101.39Z" fill="#FAFAFA"/>
<path id="Vector_38" d="M215.23 132.87L201.73 132.48C201.589 132.481 201.449 132.452 201.32 132.395C201.191 132.338 201.075 132.254 200.981 132.149C200.886 132.045 200.815 131.921 200.772 131.787C200.729 131.652 200.714 131.51 200.73 131.37L200.86 129.7C200.899 129.419 201.04 129.162 201.255 128.978C201.471 128.794 201.746 128.695 202.03 128.7L215.53 129.09C215.672 129.089 215.813 129.118 215.943 129.176C216.072 129.233 216.188 129.318 216.283 129.424C216.378 129.53 216.449 129.655 216.491 129.79C216.534 129.926 216.547 130.069 216.53 130.21L216.4 131.87C216.361 132.151 216.22 132.408 216.005 132.592C215.789 132.776 215.513 132.875 215.23 132.87V132.87Z" fill="#FAFAFA"/>
<path id="Vector_39" opacity="0.2" d="M205.84 82.5601L197.2 89.9301C197.571 91.3121 197.818 92.7243 197.94 94.1501C201.19 93.6801 205.67 90.1001 206.02 86.6901C206.211 85.3139 206.15 83.9144 205.84 82.5601V82.5601Z" fill="black"/>
<path id="Vector_40" d="M221.87 63C219.46 75.57 218.71 80.94 211.47 86.61C200.58 95.15 185.67 89.43 184.29 76.4C183.04 64.67 187.19 46.09 200.29 42.65C203.161 41.8872 206.178 41.8697 209.058 42.5993C211.937 43.3289 214.582 44.7814 216.743 46.8192C218.904 48.857 220.509 51.4127 221.407 54.2443C222.304 57.0759 222.463 60.0896 221.87 63Z" fill="#D89B26"/>
<path id="Vector_41" d="M214.72 53.7001C213.16 61.5701 212.79 72.0001 220 72.0001C227.21 72.0001 232.86 59.7301 226.64 50.1201C220.42 40.5101 215.63 49.0601 214.72 53.7001Z" fill="#263238"/>
<path id="Vector_42" d="M227.18 54.67C227.18 63.23 216.4 59 211.63 55.31C206.86 51.62 206.63 52.02 197.79 52.01C188.95 52 187.18 51.39 184.57 47.17C181.96 42.95 182.2 40.17 188.08 41.06C193.96 41.95 189.02 35.95 193.4 32.62C197.78 29.29 202.97 30.13 208.96 37.73C214.95 45.33 227.18 39.84 227.18 54.67Z" fill="#263238"/>
<path id="Vector_43" d="M224.015 74.1843C225.149 70.3154 224.036 66.5833 221.53 65.8484C219.023 65.1135 216.071 67.654 214.937 71.5228C213.803 75.3917 214.915 79.1237 217.422 79.8587C219.929 80.5936 222.881 78.0531 224.015 74.1843Z" fill="white"/>
<path id="Vector_44" d="M204 83.8601C201.679 83.8596 199.382 83.3867 197.25 82.4701C197.204 82.4515 197.163 82.424 197.128 82.3891C197.093 82.3543 197.065 82.3128 197.047 82.2672C197.028 82.2215 197.019 82.1726 197.019 82.1233C197.02 82.074 197.03 82.0253 197.05 81.9801C197.092 81.8888 197.167 81.8172 197.26 81.7799C197.353 81.7427 197.457 81.7427 197.55 81.7801C199.559 82.6424 201.721 83.0929 203.908 83.1049C206.094 83.1169 208.261 82.6902 210.28 81.8501C212.243 81.0466 214.026 79.8586 215.524 78.3559C217.021 76.8532 218.203 75.0663 219 73.1001C222 64.5101 225.06 53.7901 221.52 47.1001C220.808 45.798 219.822 44.6653 218.631 43.7798C217.44 42.8944 216.072 42.277 214.62 41.9701C214.524 41.9442 214.441 41.8815 214.391 41.7954C214.34 41.7093 214.326 41.6068 214.35 41.5101C214.376 41.4137 214.439 41.3313 214.525 41.2808C214.611 41.2303 214.713 41.2156 214.81 41.2401C216.361 41.5739 217.823 42.2379 219.094 43.187C220.366 44.136 221.418 45.3479 222.18 46.7401C225.86 53.6501 222.79 64.5801 219.7 73.3301C218.862 75.3949 217.619 77.271 216.044 78.8477C214.469 80.4243 212.594 81.6696 210.53 82.5101C208.461 83.3793 206.244 83.8378 204 83.8601V83.8601Z" fill="white"/>
<path id="Vector_45" opacity="0.6" d="M223.65 74.22C222.76 77.22 220.72 79.33 219.09 78.86C217.46 78.39 216.86 75.53 217.75 72.49C218.64 69.45 220.68 67.37 222.31 67.85C223.94 68.33 224.54 71.18 223.65 74.22Z" fill="#407BFF"/>
<path id="Vector_46" d="M198.288 80.8154L194.37 80.0596C193.682 79.9267 193.016 80.3773 192.883 81.066L192.839 81.2918C192.706 81.9805 193.157 82.6465 193.846 82.7794L197.763 83.5353C198.452 83.6681 199.118 83.2175 199.251 82.5288L199.295 82.303C199.427 81.6143 198.977 80.9483 198.288 80.8154Z" fill="white"/>
<path id="Vector_47" d="M193.17 64.05C193.17 64.05 190.85 68.26 188.65 70.15C189.84 71.6 192.24 71.3201 192.24 71.3201L193.17 64.05Z" fill="#AE7E22"/>
<path id="Vector_48" d="M195.38 76.7H195.47C197.737 76.879 199.988 76.193 201.77 74.78C201.807 74.7426 201.827 74.6924 201.827 74.64C201.827 74.5877 201.807 74.5374 201.77 74.5C201.752 74.4822 201.731 74.468 201.708 74.4584C201.685 74.4487 201.66 74.4437 201.635 74.4437C201.61 74.4437 201.585 74.4487 201.562 74.4584C201.539 74.468 201.518 74.4822 201.5 74.5C199.799 75.8375 197.658 76.4903 195.5 76.33C195.474 76.3258 195.448 76.3269 195.423 76.3333C195.397 76.3397 195.374 76.3512 195.353 76.3672C195.332 76.3831 195.315 76.4032 195.303 76.426C195.29 76.4489 195.282 76.4741 195.28 76.5C195.275 76.5395 195.282 76.5797 195.299 76.6153C195.317 76.6509 195.345 76.6804 195.38 76.7V76.7Z" fill="#263238"/>
<path id="Vector_49" d="M206.82 59.1C206.877 59.1316 206.94 59.1481 207.005 59.1481C207.07 59.1481 207.133 59.1316 207.19 59.1C207.276 59.0428 207.336 58.9547 207.358 58.8541C207.381 58.7535 207.363 58.6482 207.31 58.56C206.832 57.7592 206.17 57.0839 205.378 56.59C204.587 56.0961 203.69 55.7979 202.76 55.72C202.656 55.72 202.555 55.7608 202.481 55.8336C202.406 55.9065 202.363 56.0057 202.36 56.11C202.36 56.2118 202.4 56.3095 202.471 56.3823C202.542 56.4552 202.638 56.4974 202.74 56.5C203.541 56.5764 204.313 56.8408 204.992 57.2718C205.671 57.7027 206.24 58.288 206.65 58.98C206.695 59.0347 206.754 59.0762 206.82 59.1Z" fill="#263238"/>
<path id="Vector_50" d="M201.09 64.22C200.92 65.22 200.23 65.99 199.55 65.88C198.87 65.77 198.48 64.88 198.65 63.8C198.82 62.72 199.52 62.03 200.19 62.14C200.86 62.25 201.27 63.19 201.09 64.22Z" fill="#263238"/>
<path id="Vector_51" d="M189.43 62.24C189.26 63.24 188.57 64.01 187.89 63.9C187.21 63.79 186.82 62.85 186.99 61.82C187.16 60.79 187.86 60.04 188.53 60.16C189.2 60.28 189.61 61.2 189.43 62.24Z" fill="#263238"/>
<path id="Vector_52" d="M188.82 60.27L186.46 59.13C186.46 59.13 187.4 61.28 188.82 60.27Z" fill="#263238"/>
<path id="Vector_53" d="M200.48 62.25L198.12 61.12C198.12 61.12 199.06 63.27 200.48 62.25Z" fill="#263238"/>
<path id="Vector_54" d="M185.47 55.27C185.53 55.3061 185.6 55.3252 185.67 55.3252C185.74 55.3252 185.809 55.3061 185.87 55.27C186.487 54.7513 187.22 54.3895 188.007 54.2154C188.794 54.0413 189.612 54.06 190.39 54.27C190.488 54.3045 190.596 54.2986 190.69 54.2536C190.783 54.2086 190.855 54.1281 190.89 54.03C190.924 53.9319 190.919 53.8241 190.873 53.7303C190.828 53.6366 190.748 53.5645 190.65 53.53C189.753 53.2744 188.807 53.2392 187.893 53.4272C186.979 53.6152 186.124 54.021 185.4 54.61C185.358 54.6395 185.323 54.6774 185.297 54.7213C185.27 54.7651 185.253 54.8139 185.246 54.8647C185.24 54.9154 185.244 54.967 185.258 55.0161C185.273 55.0652 185.297 55.1108 185.33 55.15C185.363 55.2033 185.412 55.2451 185.47 55.27V55.27Z" fill="#263238"/>
<path id="Vector_55" d="M172.75 198.12C172.75 198.12 172.61 190.96 174.75 185.37H227.1C227.1 185.37 231.81 192.97 233.03 198.12H172.75Z" fill="#407BFF"/>
<path id="Vector_56" d="M227.89 182.3L228.3 186.98C228.49 187.35 228.06 187.72 227.45 187.72H174.45C173.98 187.72 173.59 187.49 173.56 187.19L173.08 182.5C173.08 182.18 173.46 181.9 173.98 181.9H226.98C227.153 181.882 227.329 181.909 227.488 181.979C227.648 182.049 227.786 182.16 227.89 182.3V182.3Z" fill="#407BFF"/>
<path id="Vector_57" opacity="0.3" d="M227.89 182.3L228.3 186.98C228.49 187.35 228.06 187.72 227.45 187.72H174.45C173.98 187.72 173.59 187.49 173.56 187.19L173.08 182.5C173.08 182.18 173.46 181.9 173.98 181.9H226.98C227.153 181.882 227.329 181.909 227.488 181.979C227.648 182.049 227.786 182.16 227.89 182.3V182.3Z" fill="#FAFAFA"/>
<path id="Vector_58" d="M220.76 188.22H222.18C222.47 188.22 222.68 188.08 222.66 187.9L222 181.81C222 181.63 221.73 181.49 221.45 181.49H220C219.71 181.49 219.5 181.63 219.52 181.81L220.18 187.9C220.23 188.08 220.48 188.22 220.76 188.22Z" fill="#407BFF"/>
<path id="Vector_59" d="M178.47 188.22H179.89C180.17 188.22 180.39 188.08 180.37 187.9L179.7 181.81C179.7 181.63 179.44 181.49 179.15 181.49H177.73C177.45 181.49 177.23 181.63 177.25 181.81L177.92 187.9C177.94 188.08 178.19 188.22 178.47 188.22Z" fill="#407BFF"/>
<path id="Vector_60" d="M199.62 188.22H201C201.28 188.22 201.5 188.08 201.48 187.9L200.81 181.81C200.81 181.63 200.54 181.49 200.26 181.49H198.84C198.56 181.49 198.34 181.63 198.36 181.81L199.03 187.9C199.09 188.08 199.33 188.22 199.62 188.22Z" fill="#407BFF"/>
<path id="Vector_61" d="M240.86 122C243.16 129.467 245.37 136.973 247.49 144.52L250.68 155.78L252.27 161.38L252.67 162.76L252.87 163.45L252.92 163.61L252.76 163.36C252.507 162.998 252.196 162.68 251.84 162.42C251.057 161.851 250.126 161.521 249.16 161.47C248.43 161.435 247.702 161.579 247.04 161.89C246.32 162.28 246.39 162.37 246.45 162.3C246.619 162.153 246.774 161.988 246.91 161.81C247.381 161.221 247.816 160.603 248.21 159.96C249.09 158.52 249.96 156.9 250.78 155.24C252.48 151.92 254.01 148.4 255.56 144.86C257.11 141.32 258.56 137.74 260.06 134.13C261.56 130.52 262.99 126.89 264.47 123.31L270.86 125.21C269.2 133.01 267.26 140.67 264.86 148.3C263.68 152.13 262.37 155.92 260.86 159.76C260.08 161.68 259.25 163.6 258.22 165.59C257.671 166.667 257.056 167.708 256.38 168.71C255.96 169.338 255.492 169.933 254.98 170.49C254.168 171.411 253.183 172.162 252.08 172.7C250.979 173.235 249.763 173.489 248.54 173.44C247.09 173.359 245.697 172.847 244.54 171.97C243.802 171.414 243.164 170.738 242.65 169.97C242.325 169.477 242.041 168.959 241.8 168.42C241.71 168.2 241.61 167.97 241.54 167.77L241.35 167.28L241.09 166.57L240.57 165.16C239.89 163.29 239.2 161.42 238.57 159.55C237.29 155.81 236.01 152.08 234.81 148.33C232.357 140.837 230.07 133.307 227.95 125.74L240.86 122Z" fill="#D89B26"/>
<path id="Vector_62" d="M236.38 107.18C241.63 108.77 249.66 129.36 249.66 129.36L229.31 143.91C229.31 143.91 220.16 126.31 222.36 119.53C224.66 112.47 230.4 105.36 236.38 107.18Z" fill="#407BFF"/>
<path id="Vector_63" opacity="0.5" d="M236.38 107.18C241.63 108.77 249.66 129.36 249.66 129.36L229.31 143.91C229.31 143.91 220.16 126.31 222.36 119.53C224.66 112.47 230.4 105.36 236.38 107.18Z" fill="white"/>
<path id="Vector_64" d="M264.7 126.05L261.91 113.75L273.51 119.87C273.51 119.87 273.65 128.15 268.97 130.76L264.7 126.05Z" fill="#D89B26"/>
<path id="Vector_65" d="M266.77 103.99L274.17 109.24L273.51 119.87L261.91 113.75L266.77 103.99Z" fill="#D89B26"/>
</g>
<g id="bubble-1">
<path id="Vector_66" d="M59 42.09H140C141.547 42.0748 143.079 42.3806 144.502 42.9881C145.924 43.5956 147.205 44.4916 148.263 45.6194C149.321 46.7472 150.134 48.0824 150.65 49.5404C151.166 50.9984 151.374 52.5476 151.26 54.09L149 90.75C148.752 93.9773 147.308 96.9957 144.952 99.215C142.596 101.434 139.496 102.695 136.26 102.75H126.88L130.71 115.34L112.39 102.75H55.29C53.7435 102.765 52.2107 102.459 50.7884 101.852C49.3661 101.244 48.0853 100.348 47.027 99.2206C45.9688 98.0928 45.156 96.7577 44.6401 95.2997C44.1243 93.8416 43.9165 92.2924 44.03 90.75L46.27 54.09C46.5184 50.8645 47.9605 47.8474 50.3145 45.6284C52.6686 43.4093 55.7655 42.1477 59 42.09V42.09Z" fill="#407BFF"/>
<path id="Vector_67" d="M132.58 61.29H64.0801C63.7892 61.2885 63.5019 61.2265 63.2363 61.1081C62.9706 60.9896 62.7325 60.8173 62.537 60.602C62.3414 60.3867 62.1927 60.1332 62.1003 59.8574C62.0079 59.5816 61.9738 59.2897 62.0001 59V59C62.0449 58.3931 62.3148 57.8249 62.757 57.4068C63.1992 56.9887 63.7816 56.7509 64.3901 56.7401H132.9C133.189 56.7407 133.476 56.8008 133.741 56.9167C134.006 57.0326 134.244 57.2018 134.441 57.4138C134.638 57.6257 134.789 57.8759 134.885 58.1488C134.982 58.4217 135.021 58.7114 135 59V59C134.964 59.6182 134.694 60.1995 134.244 60.6251C133.795 61.0507 133.199 61.2885 132.58 61.29V61.29Z" fill="white"/>
<path id="Vector_68" d="M92 74.68H63.26C62.969 74.6821 62.6807 74.624 62.4132 74.5093C62.1457 74.3946 61.9048 74.2259 61.7057 74.0136C61.5066 73.8014 61.3536 73.5502 61.2562 73.276C61.1589 73.0017 61.1193 72.7103 61.14 72.42C61.1849 71.8114 61.4563 71.2418 61.9006 70.8234C62.3449 70.405 62.9298 70.1683 63.54 70.16H92.31C92.6018 70.1565 92.8912 70.2136 93.1599 70.3276C93.4286 70.4417 93.6706 70.6103 93.8708 70.8227C94.071 71.0351 94.225 71.2867 94.3229 71.5616C94.4209 71.8366 94.4608 72.1289 94.44 72.42C94.3922 73.0346 94.1145 73.6086 93.6622 74.0275C93.21 74.4463 92.6164 74.6793 92 74.68V74.68Z" fill="white"/>
<path id="Vector_69" d="M116.63 88.07H62.44C62.149 88.0721 61.8607 88.014 61.5932 87.8993C61.3258 87.7847 61.0849 87.6159 60.8858 87.4037C60.6867 87.1914 60.5336 86.9402 60.4363 86.666C60.3389 86.3917 60.2993 86.1003 60.32 85.81V85.81C60.3627 85.2006 60.6334 84.6296 61.0782 84.2108C61.523 83.792 62.1092 83.5561 62.72 83.55H116.91C117.201 83.5464 117.491 83.6035 117.759 83.7176C118.027 83.8318 118.268 84.0005 118.468 84.2131C118.667 84.4257 118.82 84.6775 118.917 84.9524C119.014 85.2273 119.052 85.5194 119.03 85.81V85.81C118.985 86.4186 118.714 86.9883 118.269 87.4066C117.825 87.825 117.24 88.0617 116.63 88.07V88.07Z" fill="white"/>
<path id="Vector_70" d="M113.11 74.68H101.78C101.489 74.6821 101.201 74.624 100.933 74.5093C100.666 74.3947 100.425 74.2259 100.226 74.0136C100.027 73.8014 99.8736 73.5502 99.7762 73.276C99.6789 73.0017 99.6393 72.7103 99.66 72.42V72.42C99.7072 71.8122 99.9793 71.2439 100.423 70.826C100.867 70.4081 101.45 70.1706 102.06 70.16H113.38C113.671 70.1564 113.96 70.2135 114.229 70.3276C114.497 70.4418 114.738 70.6105 114.938 70.8231C115.137 71.0357 115.29 71.2875 115.387 71.5624C115.484 71.8373 115.522 72.1294 115.5 72.42V72.42C115.455 73.0269 115.185 73.5952 114.743 74.0133C114.301 74.4314 113.718 74.6692 113.11 74.68Z" fill="white"/>
</g>
<g id="bubble-2">
<path id="Vector_71" d="M306.812 0.0003872H262.652C260.134 0.0381834 257.721 1.01639 255.887 2.7428C254.053 4.4692 252.932 6.81898 252.742 9.33038L251.022 37.8704C250.936 39.0703 251.1 40.275 251.503 41.4085C251.906 42.542 252.54 43.5797 253.364 44.4563C254.188 45.3328 255.184 46.0292 256.291 46.5015C257.397 46.9738 258.589 47.2117 259.792 47.2004H267.022L262.842 57.0004L278.302 47.2004H303.922C306.44 47.1626 308.853 46.1844 310.687 44.458C312.521 42.7316 313.643 40.3818 313.832 37.8704L315.582 9.33038C315.668 8.13044 315.504 6.92576 315.101 5.79226C314.698 4.65877 314.065 3.62105 313.241 2.7445C312.417 1.86796 311.42 1.17159 310.314 0.699301C309.207 0.227012 308.015 -0.0109553 306.812 0.0003872V0.0003872Z" fill="#407BFF"/>
<path id="Vector_72" opacity="0.12" d="M306.812 0.0003872H262.652C260.134 0.0381834 257.721 1.01639 255.887 2.7428C254.053 4.4692 252.932 6.81898 252.742 9.33038L251.022 37.8704C250.936 39.0703 251.1 40.275 251.503 41.4085C251.906 42.542 252.54 43.5797 253.364 44.4563C254.188 45.3328 255.184 46.0292 256.291 46.5015C257.397 46.9738 258.589 47.2117 259.792 47.2004H267.022L262.842 57.0004L278.302 47.2004H303.922C306.44 47.1626 308.853 46.1844 310.687 44.458C312.521 42.7316 313.643 40.3818 313.832 37.8704L315.582 9.33038C315.668 8.13044 315.504 6.92576 315.101 5.79226C314.698 4.65877 314.065 3.62105 313.241 2.7445C312.417 1.86796 311.42 1.17159 310.314 0.699301C309.207 0.227012 308.015 -0.0109553 306.812 0.0003872V0.0003872Z" fill="#FAFAFA"/>
<path id="Vector_73" d="M285.522 28.2704C285.37 28.8989 285.011 29.4583 284.504 29.8589C283.996 30.2596 283.369 30.4784 282.722 30.4804H280.112C280.112 29.7404 280.172 29.2904 280.182 29.1304C280.22 27.689 280.589 26.2758 281.262 25.0004C282.207 23.5787 283.407 22.3445 284.802 21.3604C285.914 20.5543 286.964 19.6651 287.942 18.7004C288.461 18.0865 288.769 17.3224 288.822 16.5204C288.861 15.989 288.778 15.4557 288.579 14.9616C288.379 14.4674 288.069 14.0257 287.672 13.6704C286.702 12.8393 285.447 12.4164 284.172 12.4904C282.831 12.4538 281.52 12.8931 280.472 13.7304C279.849 14.2443 279.339 14.8808 278.972 15.6004C278.702 16.126 278.283 16.5602 277.767 16.8484C277.251 17.1366 276.661 17.266 276.072 17.2204V17.2204C275.648 17.1679 275.244 17.0094 274.898 16.7594C274.551 16.5094 274.274 16.1761 274.09 15.7903C273.907 15.4045 273.824 14.9786 273.848 14.5521C273.873 14.1257 274.005 13.7123 274.232 13.3504C274.836 12.3377 275.61 11.4376 276.522 10.6904C278.689 8.9483 281.414 8.0496 284.192 8.16039C287.462 8.16039 290.002 9.0104 291.832 10.7204C292.689 11.457 293.363 12.3821 293.802 13.4231C294.241 14.4642 294.433 15.5928 294.362 16.7204C294.27 18.0021 293.827 19.2337 293.082 20.2804C291.677 22.01 290.054 23.5496 288.252 24.8604C287.319 25.5121 286.512 26.3289 285.872 27.2704C285.709 27.5858 285.592 27.9224 285.522 28.2704V28.2704ZM279.812 35.4504V35.1304C279.865 34.4077 280.187 33.7312 280.715 33.2348C281.243 32.7385 281.938 32.4585 282.662 32.4504H283.022C283.369 32.4453 283.712 32.5124 284.032 32.6473C284.351 32.7822 284.639 32.982 284.877 33.234C285.114 33.486 285.297 33.7847 285.414 34.1112C285.53 34.4376 285.577 34.7847 285.552 35.1304V35.4504C285.5 36.174 285.178 36.8517 284.65 37.3497C284.123 37.8476 283.428 38.1298 282.702 38.1404H282.382C282.031 38.1512 281.682 38.0881 281.357 37.9552C281.033 37.8222 280.74 37.6223 280.497 37.3686C280.255 37.1148 280.068 36.8129 279.95 36.4824C279.832 36.1519 279.785 35.8003 279.812 35.4504V35.4504Z" fill="white"/>
</g>
</g>
</svg>
